<mxfile host="Electron" modified="2024-03-13T00:35:01.185Z" agent="Mozilla/5.0 (Macintosh; Intel Mac OS X 10_15_7) AppleWebKit/537.36 (KHTML, like Gecko) draw.io/24.0.4 Chrome/120.0.6099.109 Electron/28.1.0 Safari/537.36" etag="g_tz6iD4iCBQh4cpgNKf" version="24.0.4" type="device">
  <diagram name="Page-1" id="7HknB6531hBOHP6SLGoX">
    <mxGraphModel dx="954" dy="727" grid="1" gridSize="10" guides="1" tooltips="1" connect="1" arrows="1" fold="1" page="1" pageScale="1" pageWidth="850" pageHeight="1100" math="0" shadow="0">
      <root>
        <mxCell id="0" />
        <mxCell id="1" parent="0" />
        <mxCell id="XDJdw9ZEP_axK00QsI53-1" value="" style="strokeWidth=5;html=1;shape=mxgraph.flowchart.annotation_1;align=center;pointerEvents=1;rotation=-90;fillColor=#1ba1e2;fontColor=#ffffff;strokeColor=#006EAF;fontStyle=0;labelBorderColor=none;" vertex="1" parent="1">
          <mxGeometry x="40" y="476.25" width="125" height="42.5" as="geometry" />
        </mxCell>
        <mxCell id="XDJdw9ZEP_axK00QsI53-2" value="&lt;font style=&quot;font-size: 20px;&quot;&gt;1&lt;/font&gt;" style="text;html=1;align=center;verticalAlign=middle;resizable=0;points=[];autosize=1;strokeColor=none;fillColor=none;" vertex="1" parent="1">
          <mxGeometry x="87.5" y="518.75" width="30" height="40" as="geometry" />
        </mxCell>
        <mxCell id="XDJdw9ZEP_axK00QsI53-3" value="&lt;font style=&quot;font-size: 18px;&quot;&gt;a&lt;/font&gt;" style="text;html=1;align=center;verticalAlign=middle;resizable=0;points=[];autosize=1;strokeColor=none;fillColor=none;" vertex="1" parent="1">
          <mxGeometry x="87.5" y="320" width="30" height="40" as="geometry" />
        </mxCell>
        <mxCell id="XDJdw9ZEP_axK00QsI53-4" value="" style="endArrow=classic;html=1;rounded=0;fontSize=12;fontStyle=1;horizontal=0;strokeWidth=3;" edge="1" parent="1">
          <mxGeometry width="50" height="50" relative="1" as="geometry">
            <mxPoint x="100" y="360" as="sourcePoint" />
            <mxPoint x="100" y="420" as="targetPoint" />
          </mxGeometry>
        </mxCell>
      </root>
    </mxGraphModel>
  </diagram>
</mxfile>
